<mxfile host="app.diagrams.net" agent="Mozilla/5.0 (Windows NT 10.0; Win64; x64) AppleWebKit/537.36 (KHTML, like Gecko) Chrome/129.0.0.0 Safari/537.36" version="25.0.3">
  <diagram id="C5RBs43oDa-KdzZeNtuy" name="Page-1">
    <mxGraphModel dx="880" dy="468" grid="0" gridSize="10" guides="1" tooltips="1" connect="1" arrows="1" fold="1" page="1" pageScale="1" pageWidth="827" pageHeight="1169" math="0" shadow="0">
      <root>
        <mxCell id="WIyWlLk6GJQsqaUBKTNV-0" />
        <mxCell id="WIyWlLk6GJQsqaUBKTNV-1" parent="WIyWlLk6GJQsqaUBKTNV-0" />
        <mxCell id="a-wbLg2vsFvrudSFLJff-0" value="Bắt đầu" style="ellipse;whiteSpace=wrap;html=1;" parent="WIyWlLk6GJQsqaUBKTNV-1" vertex="1">
          <mxGeometry x="304" y="70" width="110" height="50" as="geometry" />
        </mxCell>
        <mxCell id="a-wbLg2vsFvrudSFLJff-1" value="Nhập x0, r" style="shape=parallelogram;perimeter=parallelogramPerimeter;whiteSpace=wrap;html=1;fixedSize=1;" parent="WIyWlLk6GJQsqaUBKTNV-1" vertex="1">
          <mxGeometry x="299" y="150" width="120" height="60" as="geometry" />
        </mxCell>
        <mxCell id="a-wbLg2vsFvrudSFLJff-2" value="Tạo Sbox" style="rounded=0;whiteSpace=wrap;html=1;" parent="WIyWlLk6GJQsqaUBKTNV-1" vertex="1">
          <mxGeometry x="299" y="250" width="120" height="60" as="geometry" />
        </mxCell>
        <mxCell id="a-wbLg2vsFvrudSFLJff-3" value="Tạo Invert Sbox" style="rounded=0;whiteSpace=wrap;html=1;" parent="WIyWlLk6GJQsqaUBKTNV-1" vertex="1">
          <mxGeometry x="299" y="350" width="120" height="60" as="geometry" />
        </mxCell>
        <mxCell id="a-wbLg2vsFvrudSFLJff-4" value="Hiển thị kết quả và lưu vào file" style="rounded=0;whiteSpace=wrap;html=1;" parent="WIyWlLk6GJQsqaUBKTNV-1" vertex="1">
          <mxGeometry x="299" y="450" width="120" height="60" as="geometry" />
        </mxCell>
        <mxCell id="a-wbLg2vsFvrudSFLJff-5" value="Kết thúc" style="ellipse;whiteSpace=wrap;html=1;" parent="WIyWlLk6GJQsqaUBKTNV-1" vertex="1">
          <mxGeometry x="299" y="550" width="120" height="50" as="geometry" />
        </mxCell>
        <mxCell id="a-wbLg2vsFvrudSFLJff-6" value="" style="endArrow=classic;html=1;rounded=0;entryX=0.5;entryY=0;entryDx=0;entryDy=0;" parent="WIyWlLk6GJQsqaUBKTNV-1" source="a-wbLg2vsFvrudSFLJff-0" target="a-wbLg2vsFvrudSFLJff-1" edge="1">
          <mxGeometry width="50" height="50" relative="1" as="geometry">
            <mxPoint x="390" y="250" as="sourcePoint" />
            <mxPoint x="440" y="200" as="targetPoint" />
          </mxGeometry>
        </mxCell>
        <mxCell id="a-wbLg2vsFvrudSFLJff-7" value="" style="endArrow=classic;html=1;rounded=0;entryX=0.5;entryY=0;entryDx=0;entryDy=0;exitX=0.5;exitY=1;exitDx=0;exitDy=0;" parent="WIyWlLk6GJQsqaUBKTNV-1" source="a-wbLg2vsFvrudSFLJff-1" target="a-wbLg2vsFvrudSFLJff-2" edge="1">
          <mxGeometry width="50" height="50" relative="1" as="geometry">
            <mxPoint x="369" y="130" as="sourcePoint" />
            <mxPoint x="369" y="170" as="targetPoint" />
          </mxGeometry>
        </mxCell>
        <mxCell id="a-wbLg2vsFvrudSFLJff-8" value="" style="endArrow=classic;html=1;rounded=0;exitX=0.5;exitY=1;exitDx=0;exitDy=0;" parent="WIyWlLk6GJQsqaUBKTNV-1" source="a-wbLg2vsFvrudSFLJff-2" target="a-wbLg2vsFvrudSFLJff-3" edge="1">
          <mxGeometry width="50" height="50" relative="1" as="geometry">
            <mxPoint x="379" y="140" as="sourcePoint" />
            <mxPoint x="379" y="180" as="targetPoint" />
          </mxGeometry>
        </mxCell>
        <mxCell id="a-wbLg2vsFvrudSFLJff-9" value="" style="endArrow=classic;html=1;rounded=0;entryX=0.5;entryY=0;entryDx=0;entryDy=0;exitX=0.5;exitY=1;exitDx=0;exitDy=0;" parent="WIyWlLk6GJQsqaUBKTNV-1" source="a-wbLg2vsFvrudSFLJff-3" target="a-wbLg2vsFvrudSFLJff-4" edge="1">
          <mxGeometry width="50" height="50" relative="1" as="geometry">
            <mxPoint x="389" y="150" as="sourcePoint" />
            <mxPoint x="389" y="190" as="targetPoint" />
          </mxGeometry>
        </mxCell>
        <mxCell id="a-wbLg2vsFvrudSFLJff-10" value="" style="endArrow=classic;html=1;rounded=0;exitX=0.5;exitY=1;exitDx=0;exitDy=0;entryX=0.5;entryY=0;entryDx=0;entryDy=0;" parent="WIyWlLk6GJQsqaUBKTNV-1" source="a-wbLg2vsFvrudSFLJff-4" target="a-wbLg2vsFvrudSFLJff-5" edge="1">
          <mxGeometry width="50" height="50" relative="1" as="geometry">
            <mxPoint x="390" y="600" as="sourcePoint" />
            <mxPoint x="440" y="550" as="targetPoint" />
          </mxGeometry>
        </mxCell>
      </root>
    </mxGraphModel>
  </diagram>
</mxfile>
